<?xml version="1.0" encoding="UTF-8"?>
<svg version="1.1" xmlns="http://www.w3.org/2000/svg" width="160" height="160">
<path d="M0 0 C52.8 0 105.6 0 160 0 C160 52.8 160 105.6 160 160 C107.2 160 54.4 160 0 160 C0 107.2 0 54.4 0 0 Z " fill="#000000" transform="translate(0,0)"/>
<path d="M0 0 C2.97 0.99 5.94 1.98 9 3 C10.63512377 3.51937135 12.27151305 4.03481052 13.91015625 4.54296875 C25.20700241 8.1188157 35.59615252 12.35149602 46 18 C55.71439522 23.26470826 65.03863199 28.2696885 75.5546875 31.734375 C79.47891693 33.17592867 83.10397443 34.95793045 86.8125 36.875 C92.93057001 40.03419188 99.11043201 42.79554263 105.50317383 45.35058594 C109.9748723 47.1439472 114.36240826 49.06250827 118.73608398 51.08276367 C126.57761939 54.69276202 134.29670709 57.49525702 142.64453125 59.69921875 C148.54174992 61.46045087 154.2556292 63.79062661 160 66 C160 76.56 160 87.12 160 98 C107.2 98 54.4 98 0 98 C0 65.66 0 33.32 0 0 Z " fill="#000000" transform="translate(0,62)"/>
<path d="M0 0 C3.97340708 1.95413463 8.02652069 3.2565668 12.24609375 4.5703125 C15.0745519 5.51571495 17.70825345 6.63914357 20.41015625 7.8984375 C31.47690876 13.05346324 42.55621471 17.15686621 54.30834961 20.43139648 C55.11796143 20.66157471 55.92757324 20.89175293 56.76171875 21.12890625 C57.4779541 21.32637451 58.19418945 21.52384277 58.93212891 21.72729492 C61.66003335 22.73019192 63.75847196 23.77614662 66.09765625 25.5234375 C66.69892883 28.01017761 66.69892883 28.01017761 66.6652832 31.00463867 C66.66490555 32.12557419 66.66452789 33.2465097 66.66413879 34.40141296 C66.63833237 35.61086075 66.61252594 36.82030853 66.5859375 38.06640625 C66.57532539 39.92450676 66.57532539 39.92450676 66.5644989 41.82014465 C66.54123266 45.11027666 66.49632791 48.3991845 66.440979 51.68890381 C66.38978995 55.04700744 66.36698584 58.40529038 66.34179688 61.76367188 C66.28660966 68.35074041 66.20289243 74.93698881 66.09765625 81.5234375 C65.32562363 81.15572235 65.32562363 81.15572235 64.53799438 80.78057861 C54.00142494 75.76574003 43.44644037 70.81476978 32.78125 66.078125 C25.0272317 62.59394056 17.75235405 58.5711409 10.53515625 54.0859375 C3.97063646 50.23085008 -2.87054058 47.75635227 -10.00976562 45.21435547 C-13.73767084 43.85342 -17.37949537 42.28916212 -21.03125 40.73828125 C-23.01097086 39.90060344 -24.99855445 39.08135 -26.9921875 38.27734375 C-33.24704615 35.74542745 -39.08386965 32.92982265 -44.90234375 29.5234375 C-46.58720642 28.55664725 -48.27216106 27.59001337 -49.95874023 26.6262207 C-51.17303804 25.93161432 -52.3860914 25.23482798 -53.59790039 24.53588867 C-57.25752547 22.4316166 -60.96062977 20.45583095 -64.71484375 18.5234375 C-72.37565458 14.35405815 -79.69140308 8.84269287 -82.90234375 0.5234375 C-83.38779188 -3.66635331 -82.90725393 -6.94103603 -80.578125 -10.5 C-62.23075638 -30.77191778 -19.64283195 -10.34819037 0 0 Z " fill="#8700FF" transform="translate(93.90234375,20.4765625)"/>
<path d="M0 0 C13.26386876 4.68136545 26.35846777 9.39723912 39.15625 15.19921875 C41.71678176 16.31131411 44.34188091 17.15166412 47 18 C48.84952748 18.68799874 50.69852862 19.37744955 52.54467773 20.07446289 C54.30440907 20.73779604 56.06584255 21.39662039 57.82836914 22.05249023 C93.09104971 35.19033513 93.09104971 35.19033513 106 45 C107.010625 45.7425 108.02125 46.485 109.0625 47.25 C111.55431603 50.78677114 111.83154095 53.28197166 111.62109375 57.5546875 C110.70943497 61.14398558 108.89230398 62.73206252 106.01953125 64.94140625 C95.94184589 70.2239067 76.46620014 67.94852705 66 65 C59.93118082 62.96582575 53.97734249 60.64403332 48.02734375 58.2890625 C42.89683096 56.28494939 37.71236462 54.63896807 32.43823242 53.05810547 C26.13340862 51.11781531 19.91699111 48.91771762 13.6875 46.75 C6.9121875 44.39875 6.9121875 44.39875 0 42 C0 28.14 0 14.28 0 0 Z " fill="#8700FF" transform="translate(0,86)"/>
<path d="M0 0 C1.37224731 0.2618811 1.37224731 0.2618811 2.7722168 0.52905273 C11.27417684 2.25433503 18.99562715 5.06558454 27 8.375 C28.33862957 8.86660017 29.67851173 9.35480097 31.01953125 9.83984375 C34.79605919 11.24299682 38.30807834 12.99680568 41.875 14.875 C46.68675267 17.35504655 51.36529995 19.24405356 56.59375 20.64453125 C60.22104706 21.745675 63.55441755 23.39217942 66.984375 24.9921875 C77.04846241 29.60706696 87.17584246 33.22715217 97.85913086 36.10717773 C104.08527344 37.85558485 108.05724621 40.07347012 114 43.375 C114 51.955 114 60.535 114 69.375 C92.48562068 59.7652439 92.48562068 59.7652439 84 55.375 C82.62603073 54.68544239 81.25105283 53.9978903 79.875 53.3125 C79.22789063 52.98765625 78.58078125 52.6628125 77.9140625 52.328125 C76.66299949 51.70514669 75.40790004 51.09019242 74.1484375 50.484375 C70.1155368 48.5260117 66.32032429 46.34898318 62.5 44 C55.91169514 40.10691076 49.06311647 37.6173632 41.88818359 35.06152344 C37.18314978 33.35082327 32.58976927 31.37028328 28 29.375 C27.01128906 28.94832031 26.02257812 28.52164063 25.00390625 28.08203125 C17.68210738 24.81875759 10.72448486 21.08021211 3.75488281 17.12939453 C-2.10530809 13.81944875 -8.06602801 10.85409587 -14.1796875 8.04296875 C-17.30159059 6.19663548 -18.9967857 4.37982145 -21 1.375 C-21 0.715 -21 0.055 -21 -0.625 C-14.14530168 -2.90989944 -6.92678185 -1.33106382 0 0 Z " fill="#000000" transform="translate(46,17.625)"/>
<path d="M0 0 C3.78411431 0.94602858 7.08607727 2.20410318 10.6875 3.6875 C15.5190757 5.66391848 20.36554736 7.49537252 25.3137207 9.15869141 C36.22531987 12.83895718 46.19724734 17.82758331 56.2890625 23.3359375 C63.9370079 27.49353385 71.30454144 31.00294045 79.59765625 33.7578125 C83.24964425 35.09114451 86.67630701 36.72106614 90.125 38.5 C95.21138389 41.12196338 100.30233803 43.44167903 105.609375 45.57421875 C108.16111011 46.647241 110.64526213 47.76534277 113.140625 48.95703125 C124.91146245 54.53039634 136.88068105 58.82924093 149.25927734 62.81323242 C150.50789551 63.21517822 151.75651367 63.61712402 153.04296875 64.03125 C154.16727295 64.38767578 155.29157715 64.74410156 156.44995117 65.11132812 C159 66 159 66 160 67 C160.07271741 69.35313555 160.08370868 71.70833668 160.0625 74.0625 C160.05347656 75.35285156 160.04445312 76.64320312 160.03515625 77.97265625 C160.01775391 79.47119141 160.01775391 79.47119141 160 81 C151.19300441 78.74789926 142.57869108 75.99632253 134 73 C133.18208984 72.71616455 132.36417969 72.4323291 131.52148438 72.13989258 C124.36329909 69.6026591 117.43393442 66.65511983 110.5 63.5625 C109.44941406 63.09779297 108.39882812 62.63308594 107.31640625 62.15429688 C101.38775849 59.52707781 95.47760685 56.86089556 89.57666016 54.17211914 C85.70433192 52.41060238 81.82321287 50.66926527 77.9375 48.9375 C77.15656982 48.58880859 76.37563965 48.24011719 75.57104492 47.88085938 C71.68313226 46.15451765 67.79518393 44.49850148 63.8125 43 C59.68224507 41.39300661 55.82645353 39.36170327 51.9375 37.25 C37.1510978 29.25553617 22.28270198 23.07961971 6.2956543 17.83447266 C4 17 4 17 0 15 C0 10.05 0 5.1 0 0 Z " fill="#8700FF" transform="translate(0,47)"/>
<path d="M0 0 C23.43 0 46.86 0 71 0 C71 11.55 71 23.1 71 35 C67.638125 33.515 64.27625 32.03 60.8125 30.5 C51.99694329 26.63729505 43.12106826 23.0252443 34.09301758 19.68945312 C27.33252316 17.18340192 20.61121241 14.58765032 14.375 10.9375 C11.02538518 8.91406336 11.02538518 8.91406336 7.3125 7.5 C4.05805727 6.02629009 2.2270477 4.76153914 0 2 C0 1.34 0 0.68 0 0 Z " fill="#8700FF" transform="translate(89,0)"/>
<path d="M0 0 C3.76153354 0.75230671 6.69795368 1.54636606 10.203125 2.92578125 C11.18410156 3.31056641 12.16507813 3.69535156 13.17578125 4.09179688 C14.19027344 4.49462891 15.20476563 4.89746094 16.25 5.3125 C17.24902344 5.70373047 18.24804688 6.09496094 19.27734375 6.49804688 C24.59377575 8.59334655 29.83731071 10.79606687 35.04638672 13.14428711 C37.63346553 14.27746772 40.26481521 15.21377593 42.9375 16.125 C73.03499662 26.74572356 73.03499662 26.74572356 86.5625 33.5 C87.54355713 33.98883667 87.54355713 33.98883667 88.54443359 34.48754883 C92.86338006 36.72676012 92.86338006 36.72676012 94 39 C76.91855983 40.10865116 61.40833791 33.97072595 45.62792969 28.29101562 C41.82725034 26.93852623 38.01476734 25.62634125 34.1953125 24.328125 C33.54614365 24.10697525 32.89697479 23.8858255 32.22813416 23.65797424 C29.08060388 22.58588937 25.93219959 21.51654638 22.7824707 20.45092773 C14.91533725 17.75777944 7.4340223 14.71701115 0 11 C0 7.37 0 3.74 0 0 Z " fill="#000000" transform="translate(0,101)"/>
<path d="M0 0 C15.84 0 31.68 0 48 0 C48 6.6 48 13.2 48 20 C46.68128906 19.41992188 45.36257812 18.83984375 44.00390625 18.2421875 C34.01377261 13.88348555 24.02544835 9.80767319 13.7109375 6.28515625 C9.07383365 4.67925397 4.52726621 2.89099571 0 1 C0 0.67 0 0.34 0 0 Z " fill="#000000" transform="translate(112,0)"/>
</svg>
